<?xml version="1.0" standalone="no"?><!DOCTYPE svg PUBLIC "-//W3C//DTD SVG 1.1//EN" "http://www.w3.org/Graphics/SVG/1.1/DTD/svg11.dtd"><svg t="1603644533376" class="icon" viewBox="0 0 1024 1024" version="1.1" xmlns="http://www.w3.org/2000/svg" p-id="1316" xmlns:xlink="http://www.w3.org/1999/xlink" width="200" height="200"><defs><style type="text/css"></style></defs><path d="M401.37 190.356l-54.332 87.486 118.276 8.91 88.002 36.21v-96.69M941.756 361.266c-97.658 0-177.288-79.288-177.64-177.034a24.14 24.14 0 0 1 24.06-24.234h0.09c13.3-0.006 24.096 10.754 24.144 24.06 0.258 71.172 58.248 128.908 129.346 128.908h0.512c13.338-0.016 24.166 10.776 24.182 24.112 0.02 13.338-10.776 24.166-24.112 24.186h-0.582z" fill="#d81e06" p-id="1317"></path><path d="M479.668 215.062c-13.342 0-24.154-10.814-24.154-24.154v-0.516c0-97.594 79.398-177.282 177.002-177.64h0.584c97.688 0 177.334 79.288 177.692 177.034a24.146 24.146 0 0 1-24.066 24.234h-0.084c-13.306 0-24.104-10.756-24.15-24.06-0.258-71.316-58.522-129.178-129.814-128.91-71.052 0.258-128.862 58.284-128.862 129.342v0.516c0.002 13.338-10.812 24.15-24.148 24.154zM927.618 578.72a24.146 24.146 0 0 1-15.606-42.592 128.848 128.848 0 0 0 18.496-19.28c37.422-47.984 35.99-116.532-3.388-163.008-8.626-10.176-7.366-25.414 2.808-34.04 10.176-8.622 25.414-7.362 34.04 2.814 54.084 63.838 56.04 158.006 4.648 223.904a177.32 177.32 0 0 1-25.424 26.498 24.06 24.06 0 0 1-15.574 5.704z m0 0" fill="#d81e06" p-id="1318"></path><path d="M561.916 349.916a24.146 24.146 0 0 1-23.99-21.668l-8.684-84.146-124.186-30.836-47.082 70.388c-7.414 11.086-22.416 14.058-33.502 6.644-11.086-7.414-14.058-22.416-6.644-33.498l56.512-84.488a24.132 24.132 0 0 1 25.888-10.012l157.114 39.02a24.14 24.14 0 0 1 18.2 20.956l10.418 101.014a24.14 24.14 0 0 1-6.102 18.658 24.132 24.132 0 0 1-17.942 7.968z" fill="#d81e06" p-id="1319"></path><path d="M728.996 483.198c-31.422-73.764-86.468-136.85-154.986-177.618a378.372 378.372 0 0 0-102.89-42.27c-44.314-10.982-90.3-13.938-135.064-8.726-75.956 8.8-146.798 40.004-204.872 90.236-59.406 51.392-100.828 118.972-119.798 195.45-50.364 203.106 73.86 409.354 276.924 459.74a381.482 381.482 0 0 0 91.648 11.24c174.626 0 325.986-118.492 368.09-288.16 20.02-80.662 13.428-163.624-19.052-239.892z m-594.77-5.328a276.45 276.45 0 0 1 29.488-40.458c8.8-10.018 24.058-11.008 34.082-2.208 10.018 8.8 11.008 24.06 2.208 34.082a228.27 228.27 0 0 0-24.328 33.37 24.118 24.118 0 0 1-20.746 11.756 24.142 24.142 0 0 1-20.988-12.246 24.144 24.144 0 0 1 0.284-24.296z m199.844 387.808a24.156 24.156 0 0 1-29.816 20.518c-71.356-17.688-131.548-62.114-169.484-125.094-37.94-62.972-49.082-136.954-31.372-208.312 3.204-12.936 16.288-20.83 29.23-17.63l0.026 0.006a24.136 24.136 0 0 1 17.62 29.25c-14.596 58.832-5.418 119.83 25.866 171.76 31.28 51.93 80.912 88.556 139.732 103.142a24.142 24.142 0 0 1 18.198 26.36zM1011.822 603.154a22.05 22.05 0 0 1 11.604 23.754 21.988 21.988 0 0 1-19.56 17.846l-20.608 2.046 9.336 18.51a22.136 22.136 0 0 1-4.642 26.026 22.016 22.016 0 0 1-26.3 2.982l-17.9-10.496-3.314 20.44a22.1 22.1 0 0 1-21.824 18.57 22.104 22.104 0 0 1-20.278-13.262l-8.288-19.006-14.702 14.586a22.074 22.074 0 0 1-26.242 3.646 22.068 22.068 0 0 1-10.886-24.086l4.474-20.224-20.498 3.146c-9.67 1.498-19.17-3.588-23.37-12.43-4.146-8.894-1.992-19.45 5.302-25.968l15.528-13.758-18.4-9.506a22.058 22.058 0 0 1-11.604-23.76 22.108 22.108 0 0 1 19.612-17.842l20.556-2.044-9.336-18.458a22.038 22.038 0 0 1 4.642-26.078 22.014 22.014 0 0 1 26.3-2.93l17.904 10.502 3.316-20.502a22.1 22.1 0 0 1 42.044-5.246l8.288 18.952 14.754-14.584a22.088 22.088 0 0 1 26.188-3.646c8.62 4.694 13.042 14.526 10.938 24.086l-4.474 20.282 20.498-3.152c9.67-1.49 19.176 3.59 23.374 12.43a22.184 22.184 0 0 1-5.36 25.972l-15.47 13.7 18.398 9.502z" fill="#d81e06" p-id="1320"></path><path d="M935.85 610.168a21.694 21.694 0 0 1-3.146-8.894 21.57 21.57 0 0 1 0.826-9.396 21.17 21.17 0 0 1-7.734-5.36 21.628 21.628 0 0 1-4.864-8.066 21.8 21.8 0 0 1-9.448 0.28c-3.15-0.664-6.132-1.934-8.672-3.756a22.006 22.006 0 0 1-7.514 5.742c-2.87 1.382-6.022 2.044-9.172 2.102a22.084 22.084 0 0 1-2.65 9.058c-1.602 2.82-3.704 5.252-6.244 7.076a21.74 21.74 0 0 1 3.152 8.896 22.348 22.348 0 0 1-0.832 9.39 21.934 21.934 0 0 1 7.792 5.364 23.156 23.156 0 0 1 4.864 8.12 20.366 20.366 0 0 1 5.248-0.664c1.382 0 2.762 0.168 4.142 0.39 3.152 0.606 6.08 1.934 8.622 3.698a22.72 22.72 0 0 1 7.514-5.744c2.93-1.386 6.076-2.046 9.226-2.102a21.998 21.998 0 0 1 8.89-16.134z" fill="#d81e06" p-id="1321"></path><path d="M932.704 601.274a21.694 21.694 0 0 0 3.146 8.894 22.03 22.03 0 0 0-8.894 16.134c-3.152 0.058-6.296 0.718-9.226 2.102a22.692 22.692 0 0 0-7.514 5.744 22.66 22.66 0 0 0-8.622-3.698c-1.38-0.222-2.76-0.39-4.142-0.39-1.822 0-3.594 0.222-5.248 0.664-1.054-2.982-2.656-5.75-4.864-8.12a21.97 21.97 0 0 0-7.792-5.364c0.942-2.982 1.216-6.186 0.832-9.39a21.75 21.75 0 0 0-3.152-8.896c2.54-1.824 4.642-4.258 6.244-7.076a22.022 22.022 0 0 0 2.65-9.058 22.02 22.02 0 0 0 9.172-2.102 22.006 22.006 0 0 0 7.514-5.742c2.54 1.822 5.522 3.094 8.672 3.756a21.74 21.74 0 0 0 9.448-0.28 21.628 21.628 0 0 0 4.864 8.066 21.236 21.236 0 0 0 7.734 5.36 21.6 21.6 0 0 0-0.822 9.396z m0 0" fill="#d81e06" p-id="1322"></path></svg>